<?xml version="1.0" encoding="UTF-8" standalone="no"?>
<!-- Generator: Adobe Illustrator 19.0.0, SVG Export Plug-In . SVG Version: 6.00 Build 0)  -->

<svg
   xmlns:dc="http://purl.org/dc/elements/1.1/"
   xmlns:cc="http://creativecommons.org/ns#"
   xmlns:rdf="http://www.w3.org/1999/02/22-rdf-syntax-ns#"
   xmlns:svg="http://www.w3.org/2000/svg"
   xmlns="http://www.w3.org/2000/svg"
   xmlns:sodipodi="http://sodipodi.sourceforge.net/DTD/sodipodi-0.dtd"
   xmlns:inkscape="http://www.inkscape.org/namespaces/inkscape"
   version="1.1"
   id="Capa_1"
   x="0px"
   y="0px"
   viewBox="0 0 469.999 469.999"
   style="enable-background:new 0 0 469.999 469.999;"
   xml:space="preserve"
   inkscape:version="0.91 r13725"
   sodipodi:docname="restaurar.svg"><metadata
     id="metadata75"><rdf:RDF><cc:Work
         rdf:about=""><dc:format>image/svg+xml</dc:format><dc:type
           rdf:resource="http://purl.org/dc/dcmitype/StillImage" /><dc:title></dc:title></cc:Work></rdf:RDF></metadata><defs
     id="defs73" /><sodipodi:namedview
     pagecolor="#ffffff"
     bordercolor="#666666"
     borderopacity="1"
     objecttolerance="10"
     gridtolerance="10"
     guidetolerance="10"
     inkscape:pageopacity="0"
     inkscape:pageshadow="2"
     inkscape:window-width="1366"
     inkscape:window-height="749"
     id="namedview71"
     showgrid="false"
     inkscape:zoom="0.50212874"
     inkscape:cx="234.9995"
     inkscape:cy="234.9995"
     inkscape:window-x="-4"
     inkscape:window-y="-4"
     inkscape:window-maximized="1"
     inkscape:current-layer="Capa_1" /><g
     id="g3"
     transform="matrix(-1,0,0,1,469.99891,0)"><path
       style="fill:#98d9d5"
       d="m 234.886,163.812 149.391,0 -177.825,-34.415 -37.254,34.416 34.953,0 c 4.141,0 7.499,3.356 7.5,7.498 l 15.735,0 c 0.001,-4.143 3.358,-7.499 7.5,-7.499 z"
       id="path5"
       inkscape:connector-curvature="0" /><path
       style="fill:#c1e8e6"
       d="m 384.276,178.811 -149.39,0 c -4.142,0 -7.5,-3.357 -7.5,-7.5 0,-0.002 -15.735,-0.002 -15.735,-0.002 0,4.145 -3.358,7.502 -7.5,7.502 l -34.953,0 37.254,34.416 177.824,-34.416 z"
       id="path7"
       inkscape:connector-curvature="0" /><polygon
       style="fill:#ffffff"
       points="185.548,313.66 416.441,187.864 210.096,227.8 "
       id="polygon9" /><polygon
       style="fill:#ffffff"
       points="185.548,28.962 210.096,114.823 416.442,154.758 "
       id="polygon11" /><path
       style="fill:#ffffff"
       d="m 469.935,172.273 c 0.008,-0.06 0.018,-0.119 0.024,-0.179 0.002,-0.022 0.003,-0.046 0.005,-0.069 0.009,-0.097 0.011,-0.193 0.017,-0.291 0.007,-0.131 0.018,-0.263 0.018,-0.395 0,-0.19 -0.011,-0.321 -0.018,-0.453 -0.006,-0.097 -0.007,-0.193 -0.017,-0.291 -0.002,-0.023 -0.003,-0.046 -0.005,-0.069 -0.006,-0.06 -0.016,-0.119 -0.024,-0.179 -0.008,-0.058 -0.019,-0.114 -0.028,-0.171 -0.006,-0.042 -0.013,-0.083 -0.02,-0.124 -0.01,-0.056 -0.013,-0.111 -0.024,-0.167 -0.011,-0.051 -0.015,-0.078 -0.02,-0.103 -0.025,-0.119 -0.06,-0.235 -0.09,-0.352 -0.016,-0.063 -0.031,-0.127 -0.049,-0.19 -0.011,-0.038 -0.018,-0.077 -0.03,-0.114 -0.007,-0.021 -0.012,-0.043 -0.019,-0.065 -0.018,-0.058 -0.043,-0.114 -0.063,-0.171 -0.033,-0.097 -0.069,-0.193 -0.106,-0.289 -0.024,-0.061 -0.043,-0.125 -0.068,-0.186 -0.054,-0.128 -0.117,-0.25 -0.178,-0.375 -0.048,-0.099 -0.091,-0.202 -0.143,-0.298 -0.031,-0.056 -0.067,-0.109 -0.099,-0.165 -0.042,-0.073 -0.079,-0.132 -0.115,-0.191 -0.135,-0.219 -0.28,-0.43 -0.435,-0.633 -0.032,-0.042 -0.061,-0.084 -0.093,-0.125 -0.174,-0.217 -0.357,-0.426 -0.553,-0.622 -0.018,-0.018 -0.039,-0.035 -0.057,-0.053 -0.039,-0.038 -0.082,-0.073 -0.122,-0.111 -0.185,-0.174 -0.38,-0.338 -0.583,-0.493 -0.059,-0.045 -0.118,-0.089 -0.178,-0.133 -0.182,-0.13 -0.371,-0.252 -0.565,-0.367 -0.078,-0.046 -0.153,-0.097 -0.232,-0.14 C 466.024,164.69 177.004,7.226 177.004,7.226 174.35,5.78 171.087,6.07 168.728,7.957 c -2.359,1.89 -3.354,5.01 -2.523,7.916 l 29.466,103.062 -50.733,46.868 c -0.033,0.03 -0.061,0.065 -0.093,0.096 -0.106,0.102 -0.208,0.208 -0.308,0.316 -0.07,0.076 -0.141,0.15 -0.208,0.229 -0.1,0.117 -0.193,0.238 -0.285,0.361 -0.057,0.076 -0.116,0.149 -0.169,0.227 -0.097,0.14 -0.186,0.285 -0.274,0.432 -0.039,0.066 -0.082,0.129 -0.119,0.196 -0.096,0.172 -0.182,0.35 -0.265,0.53 -0.021,0.046 -0.046,0.09 -0.066,0.137 -0.091,0.21 -0.172,0.425 -0.244,0.645 -0.007,0.02 -0.015,0.039 -0.022,0.059 -0.077,0.24 -0.142,0.485 -0.194,0.734 -0.053,0.253 -0.094,0.506 -0.12,0.763 -0.027,0.261 -0.041,0.521 -0.041,0.784 0,0.263 0.014,0.523 0.041,0.779 0.028,0.263 0.068,0.516 0.12,0.765 0.053,0.252 0.119,0.498 0.195,0.738 0.006,0.02 0.015,0.04 0.022,0.06 0.072,0.219 0.152,0.435 0.243,0.644 0.02,0.047 0.045,0.092 0.067,0.138 0.083,0.18 0.169,0.357 0.265,0.529 0.037,0.067 0.08,0.13 0.119,0.196 0.088,0.147 0.177,0.292 0.275,0.432 0.054,0.077 0.112,0.15 0.169,0.226 0.093,0.123 0.186,0.245 0.286,0.362 0.067,0.079 0.138,0.153 0.208,0.229 0.1,0.108 0.202,0.214 0.308,0.316 0.032,0.031 0.06,0.065 0.093,0.096 l 50.733,46.868 -29.469,103.06 c -0.831,2.906 0.164,6.026 2.523,7.916 1.359,1.089 3.019,1.646 4.689,1.646 1.229,0 2.462,-0.301 3.587,-0.914 L 466.022,177.933 c 0.073,-0.039 0.101,-0.058 0.13,-0.074 0.09,-0.05 0.176,-0.106 0.264,-0.16 0.105,-0.064 0.212,-0.126 0.313,-0.195 0.048,-0.033 0.093,-0.07 0.141,-0.104 0.058,-0.042 0.114,-0.084 0.17,-0.127 0.137,-0.104 0.27,-0.213 0.399,-0.326 0.09,-0.079 0.182,-0.156 0.268,-0.239 0.025,-0.023 0.037,-0.038 0.05,-0.051 0.059,-0.058 0.113,-0.119 0.17,-0.179 0.104,-0.109 0.207,-0.22 0.305,-0.335 0.017,-0.02 0.036,-0.038 0.052,-0.058 0.021,-0.026 0.039,-0.054 0.06,-0.08 0.03,-0.037 0.058,-0.074 0.087,-0.112 0.076,-0.098 0.149,-0.197 0.22,-0.298 0.049,-0.07 0.096,-0.142 0.143,-0.214 0.05,-0.077 0.102,-0.153 0.149,-0.232 0.037,-0.065 0.054,-0.1 0.073,-0.133 0.046,-0.082 0.092,-0.163 0.135,-0.247 0.061,-0.117 0.118,-0.237 0.173,-0.358 0.043,-0.095 0.087,-0.19 0.126,-0.287 0.045,-0.111 0.084,-0.225 0.124,-0.338 0.006,-0.017 0.012,-0.032 0.018,-0.049 0.02,-0.059 0.046,-0.116 0.064,-0.176 0.011,-0.036 0.019,-0.073 0.03,-0.109 0.01,-0.035 0.021,-0.071 0.031,-0.106 0.012,-0.043 0.02,-0.088 0.032,-0.132 0.005,-0.018 0.009,-0.037 0.013,-0.055 0.027,-0.106 0.059,-0.211 0.082,-0.319 0.005,-0.025 0.008,-0.05 0.013,-0.075 0.018,-0.084 0.021,-0.14 0.03,-0.195 0.007,-0.042 0.014,-0.083 0.02,-0.124 0.009,-0.059 0.02,-0.116 0.028,-0.173 z m -265.784,6.539 c 4.142,0 7.5,-3.357 7.5,-7.5 -0.001,-4.144 -3.359,-7.5 -7.5,-7.5 l -34.953,0 37.254,-34.416 177.825,34.415 -149.391,0 c -4.141,0 -7.499,3.356 -7.5,7.498 0,4.145 3.358,7.502 7.5,7.502 l 149.39,0 -177.824,34.416 -37.254,-34.416 34.953,0 z M 416.442,154.758 210.097,114.823 185.549,28.962 416.442,154.758 Z M 210.096,227.8 416.441,187.864 185.548,313.66 210.096,227.8 Z"
       id="path13"
       inkscape:connector-curvature="0" /><path
       style="fill:#6da8d6"
       d="m 21.888,362.792 c -1.543,-4.491 -2.847,-9.124 -3.875,-13.77 -0.896,-4.045 -4.908,-6.596 -8.943,-5.702 -4.044,0.896 -6.597,4.899 -5.702,8.944 1.15,5.195 2.609,10.378 4.335,15.402 1.069,3.11 3.978,5.064 7.092,5.064 0.808,0 1.631,-0.132 2.438,-0.409 3.917,-1.344 6.001,-5.612 4.655,-9.529 z"
       id="path15"
       inkscape:connector-curvature="0" /><path
       style="fill:#6da8d6"
       d="m 7.501,328.056 c 4.124,0 7.478,-3.333 7.499,-7.462 0.024,-4.805 0.289,-9.644 0.788,-14.383 0.433,-4.12 -2.555,-7.811 -6.674,-8.244 -4.111,-0.44 -7.81,2.555 -8.244,6.674 -0.551,5.234 -0.843,10.576 -0.87,15.877 -0.02,4.142 3.32,7.517 7.501,7.538 z"
       id="path17"
       inkscape:connector-curvature="0" /><path
       style="fill:#6da8d6"
       d="m 12.252,282.935 c 0.756,0.24 1.521,0.354 2.274,0.354 3.179,0 6.131,-2.038 7.146,-5.229 1.453,-4.569 3.153,-9.104 5.054,-13.478 1.65,-3.8 -0.091,-8.218 -3.89,-9.868 -3.798,-1.649 -8.217,0.092 -9.868,3.89 -2.103,4.841 -3.984,9.857 -5.591,14.911 -1.255,3.947 0.928,8.165 4.875,9.42 z"
       id="path19"
       inkscape:connector-curvature="0" /><path
       style="fill:#6da8d6"
       d="m 48.868,217.554 c -3.135,-2.709 -7.872,-2.36 -10.578,0.773 -3.457,4.002 -6.748,8.224 -9.782,12.548 -2.379,3.391 -1.56,8.067 1.831,10.447 1.311,0.919 2.813,1.361 4.302,1.361 2.361,0 4.686,-1.113 6.146,-3.193 2.747,-3.914 5.726,-7.735 8.855,-11.358 2.707,-3.135 2.361,-7.871 -0.774,-10.578 z"
       id="path21"
       inkscape:connector-curvature="0" /><path
       style="fill:#6da8d6"
       d="m 74.427,187.407 c -4.483,2.791 -8.878,5.845 -13.063,9.077 -3.278,2.531 -3.883,7.241 -1.352,10.52 1.478,1.914 3.697,2.916 5.941,2.916 1.601,0 3.214,-0.51 4.579,-1.564 3.787,-2.925 7.765,-5.688 11.822,-8.214 3.516,-2.189 4.592,-6.814 2.403,-10.331 -2.189,-3.517 -6.814,-4.593 -10.33,-2.404 z"
       id="path23"
       inkscape:connector-curvature="0" /><path
       style="fill:#6da8d6"
       d="m 113.504,445.602 c -4.626,-1.079 -9.247,-2.437 -13.732,-4.035 -3.903,-1.387 -8.192,0.646 -9.582,4.549 -1.39,3.901 0.646,8.191 4.548,9.582 5.017,1.787 10.185,3.305 15.359,4.512 0.573,0.134 1.146,0.198 1.71,0.198 3.407,0 6.49,-2.338 7.298,-5.799 0.94,-4.034 -1.568,-8.067 -5.601,-9.007 z"
       id="path25"
       inkscape:connector-curvature="0" /><path
       style="fill:#6da8d6"
       d="m 74.104,429.004 c -4.014,-2.561 -7.924,-5.374 -11.622,-8.361 -3.222,-2.605 -7.943,-2.104 -10.547,1.119 -2.604,3.222 -2.102,7.943 1.12,10.547 4.131,3.339 8.499,6.481 12.983,9.342 1.25,0.797 2.646,1.178 4.026,1.178 2.476,0 4.9,-1.226 6.33,-3.468 2.227,-3.493 1.202,-8.129 -2.29,-10.357 z"
       id="path27"
       inkscape:connector-curvature="0" /><path
       style="fill:#6da8d6"
       d="m 34.155,388.599 c -2.186,-3.517 -6.81,-4.598 -10.329,-2.409 -3.518,2.187 -4.596,6.812 -2.409,10.329 2.804,4.51 5.895,8.912 9.189,13.085 1.48,1.876 3.675,2.854 5.892,2.854 1.627,0 3.266,-0.526 4.642,-1.613 3.251,-2.566 3.807,-7.282 1.24,-10.533 -2.948,-3.737 -5.715,-7.677 -8.225,-11.713 z"
       id="path29"
       inkscape:connector-curvature="0" /><path
       style="fill:#6da8d6"
       d="m 156.064,447.893 c -4.43,0.526 -8.952,0.794 -13.44,0.794 -4.142,0 -7.5,3.357 -7.5,7.5 0,4.143 3.358,7.5 7.5,7.5 5.078,0 10.196,-0.303 15.212,-0.899 4.113,-0.489 7.051,-4.22 6.562,-8.333 -0.49,-4.114 -4.218,-7.052 -8.334,-6.562 z"
       id="path31"
       inkscape:connector-curvature="0" /><path
       style="fill:#6da8d6"
       d="m 196.34,435.042 c -4.137,2.256 -8.458,4.269 -12.842,5.982 -3.858,1.508 -5.763,5.858 -4.255,9.716 1.158,2.961 3.989,4.771 6.987,4.771 0.908,0 1.832,-0.166 2.729,-0.517 4.972,-1.943 9.871,-4.226 14.562,-6.783 3.637,-1.983 4.978,-6.538 2.995,-10.175 -1.983,-3.637 -6.538,-4.976 -10.176,-2.994 z"
       id="path33"
       inkscape:connector-curvature="0" /><path
       style="fill:#6da8d6"
       d="m 239.781,407.363 c -3.183,-2.649 -7.911,-2.22 -10.563,0.964 -3.025,3.633 -6.31,7.108 -9.764,10.333 -3.028,2.826 -3.191,7.572 -0.365,10.601 1.477,1.582 3.478,2.382 5.484,2.382 1.833,0 3.67,-0.668 5.116,-2.018 3.911,-3.65 7.63,-7.586 11.055,-11.698 2.652,-3.184 2.22,-7.912 -0.963,-10.564 z"
       id="path35"
       inkscape:connector-curvature="0" /><path
       style="fill:#6da8d6"
       d="m 259.19,366.413 c -3.937,-1.286 -8.17,0.87 -9.454,4.808 -1.462,4.49 -3.229,8.932 -5.25,13.202 -1.772,3.744 -0.174,8.216 3.57,9.988 1.036,0.49 2.128,0.723 3.204,0.723 2.809,0 5.502,-1.586 6.784,-4.293 2.293,-4.844 4.296,-9.882 5.955,-14.974 1.282,-3.938 -0.87,-8.172 -4.809,-9.454 z"
       id="path37"
       inkscape:connector-curvature="0" /><path
       style="fill:#6da8d6"
       d="m 118.151,168.671 c -5.116,1.318 -10.227,2.918 -15.191,4.754 -3.885,1.437 -5.87,5.75 -4.434,9.635 1.12,3.028 3.986,4.901 7.036,4.901 0.864,0 1.743,-0.15 2.6,-0.468 4.488,-1.659 9.109,-3.105 13.733,-4.297 4.011,-1.034 6.424,-5.124 5.391,-9.135 -1.034,-4.01 -5.121,-6.427 -9.135,-5.39 z"
       id="path39"
       inkscape:connector-curvature="0" /></g><g
     id="g41"
     transform="matrix(-1,0,0,1,469.99891,0)" /><g
     id="g43"
     transform="matrix(-1,0,0,1,469.99891,0)" /><g
     id="g45"
     transform="matrix(-1,0,0,1,469.99891,0)" /><g
     id="g47"
     transform="matrix(-1,0,0,1,469.99891,0)" /><g
     id="g49"
     transform="matrix(-1,0,0,1,469.99891,0)" /><g
     id="g51"
     transform="matrix(-1,0,0,1,469.99891,0)" /><g
     id="g53"
     transform="matrix(-1,0,0,1,469.99891,0)" /><g
     id="g55"
     transform="matrix(-1,0,0,1,469.99891,0)" /><g
     id="g57"
     transform="matrix(-1,0,0,1,469.99891,0)" /><g
     id="g59"
     transform="matrix(-1,0,0,1,469.99891,0)" /><g
     id="g61"
     transform="matrix(-1,0,0,1,469.99891,0)" /><g
     id="g63"
     transform="matrix(-1,0,0,1,469.99891,0)" /><g
     id="g65"
     transform="matrix(-1,0,0,1,469.99891,0)" /><g
     id="g67"
     transform="matrix(-1,0,0,1,469.99891,0)" /><g
     id="g69"
     transform="matrix(-1,0,0,1,469.99891,0)" /></svg>